<svg version="1.1" xmlns="http://www.w3.org/2000/svg" xmlns:xlink="http://www.w3.org/1999/xlink" width="476.63623046875" height="122"><defs/><g><text fill="#eeeeee" stroke="none" font-family="Arial" font-size="24px" font-style="normal" font-weight="normal" text-decoration="none" x="0" y="0">UNREGISTERED</text><text fill="#eeeeee" stroke="none" font-family="Arial" font-size="24px" font-style="normal" font-weight="normal" text-decoration="none" x="0" y="30">UNREGISTERED</text><text fill="#eeeeee" stroke="none" font-family="Arial" font-size="24px" font-style="normal" font-weight="normal" text-decoration="none" x="0" y="60">UNREGISTERED</text><text fill="#eeeeee" stroke="none" font-family="Arial" font-size="24px" font-style="normal" font-weight="normal" text-decoration="none" x="0" y="90">UNREGISTERED</text><text fill="#eeeeee" stroke="none" font-family="Arial" font-size="24px" font-style="normal" font-weight="normal" text-decoration="none" x="0" y="120">UNREGISTERED</text><text fill="#eeeeee" stroke="none" font-family="Arial" font-size="24px" font-style="normal" font-weight="normal" text-decoration="none" x="200" y="0">UNREGISTERED</text><text fill="#eeeeee" stroke="none" font-family="Arial" font-size="24px" font-style="normal" font-weight="normal" text-decoration="none" x="200" y="30">UNREGISTERED</text><text fill="#eeeeee" stroke="none" font-family="Arial" font-size="24px" font-style="normal" font-weight="normal" text-decoration="none" x="200" y="60">UNREGISTERED</text><text fill="#eeeeee" stroke="none" font-family="Arial" font-size="24px" font-style="normal" font-weight="normal" text-decoration="none" x="200" y="90">UNREGISTERED</text><text fill="#eeeeee" stroke="none" font-family="Arial" font-size="24px" font-style="normal" font-weight="normal" text-decoration="none" x="200" y="120">UNREGISTERED</text><text fill="#eeeeee" stroke="none" font-family="Arial" font-size="24px" font-style="normal" font-weight="normal" text-decoration="none" x="400" y="0">UNREGISTERED</text><text fill="#eeeeee" stroke="none" font-family="Arial" font-size="24px" font-style="normal" font-weight="normal" text-decoration="none" x="400" y="30">UNREGISTERED</text><text fill="#eeeeee" stroke="none" font-family="Arial" font-size="24px" font-style="normal" font-weight="normal" text-decoration="none" x="400" y="60">UNREGISTERED</text><text fill="#eeeeee" stroke="none" font-family="Arial" font-size="24px" font-style="normal" font-weight="normal" text-decoration="none" x="400" y="90">UNREGISTERED</text><text fill="#eeeeee" stroke="none" font-family="Arial" font-size="24px" font-style="normal" font-weight="normal" text-decoration="none" x="400" y="120">UNREGISTERED</text><g transform="translate(-222,-230) scale(1,1)"><rect fill="#C0C0C0" stroke="none" x="239" y="255" width="94.6298828125" height="87" opacity="0.2"/></g><g transform="translate(-222,-230) scale(1,1)"><rect fill="#ffffff" stroke="none" x="232" y="248" width="94.6298828125" height="87"/></g><g transform="translate(-222,-230) scale(1,1)"><path fill="none" stroke="#000000" d="M 232 248 L 326.6298828125 248 L 326.6298828125 335 L 232 335 L 232 248 Z Z" stroke-miterlimit="10"/></g><g transform="translate(-222,-230) scale(1,1)"><path fill="none" stroke="#000000" d="M 232 273 L 326.6298828125 273" stroke-miterlimit="10"/></g><g transform="translate(-222,-230) scale(1,1)"><path fill="none" stroke="#000000" d="M 232 326 L 326.6298828125 326" stroke-miterlimit="10"/></g><g transform="translate(-222,-230) scale(1,1)"><g><path fill="none" stroke="none"/><text fill="#000000" stroke="none" font-family="Arial" font-size="13px" font-style="normal" font-weight="bold" text-decoration="none" x="262.693603515625" y="267.5">Event</text></g></g><g transform="translate(-222,-230) scale(1,1)"><g><path fill="none" stroke="none"/><text fill="#000000" stroke="none" font-family="Arial" font-size="13px" font-style="normal" font-weight="normal" text-decoration="none" x="237" y="290.5">+eventNumber</text></g></g><g transform="translate(-222,-230) scale(1,1)"><g><path fill="none" stroke="none"/><text fill="#000000" stroke="none" font-family="Arial" font-size="13px" font-style="normal" font-weight="normal" text-decoration="none" x="237" y="305.5">+description</text></g></g><g transform="translate(-222,-230) scale(1,1)"><g><path fill="none" stroke="none"/><text fill="#000000" stroke="none" font-family="Arial" font-size="13px" font-style="normal" font-weight="normal" text-decoration="none" x="237" y="320.5">+eventDate</text></g></g><g transform="translate(-222,-230) scale(1,1)"><rect fill="#C0C0C0" stroke="none" x="575" y="247" width="120.63623046875" height="102" opacity="0.2"/></g><g transform="translate(-222,-230) scale(1,1)"><rect fill="#ffffff" stroke="none" x="568" y="240" width="120.63623046875" height="102"/></g><g transform="translate(-222,-230) scale(1,1)"><path fill="none" stroke="#000000" d="M 568 240 L 688.63623046875 240 L 688.63623046875 342 L 568 342 L 568 240 Z Z" stroke-miterlimit="10"/></g><g transform="translate(-222,-230) scale(1,1)"><path fill="none" stroke="#000000" d="M 568 265 L 688.63623046875 265" stroke-miterlimit="10"/></g><g transform="translate(-222,-230) scale(1,1)"><path fill="none" stroke="#000000" d="M 568 333 L 688.63623046875 333" stroke-miterlimit="10"/></g><g transform="translate(-222,-230) scale(1,1)"><g><path fill="none" stroke="none"/><text fill="#000000" stroke="none" font-family="Arial" font-size="13px" font-style="normal" font-weight="bold" text-decoration="none" x="602.30224609375" y="259.5">Question</text></g></g><g transform="translate(-222,-230) scale(1,1)"><g><path fill="none" stroke="none"/><text fill="#000000" stroke="none" font-family="Arial" font-size="13px" font-style="normal" font-weight="normal" text-decoration="none" x="573" y="282.5">+questionNumber</text></g></g><g transform="translate(-222,-230) scale(1,1)"><g><path fill="none" stroke="none"/><text fill="#000000" stroke="none" font-family="Arial" font-size="13px" font-style="normal" font-weight="normal" text-decoration="none" x="573" y="297.5">+question</text></g></g><g transform="translate(-222,-230) scale(1,1)"><g><path fill="none" stroke="none"/><text fill="#000000" stroke="none" font-family="Arial" font-size="13px" font-style="normal" font-weight="normal" text-decoration="none" x="573" y="312.5">+betMinimum</text></g></g><g transform="translate(-222,-230) scale(1,1)"><g><path fill="none" stroke="none"/><text fill="#000000" stroke="none" font-family="Arial" font-size="13px" font-style="normal" font-weight="normal" text-decoration="none" x="573" y="327.5">+result</text></g></g><g transform="translate(-222,-230) scale(1,1)"><path fill="none" stroke="#000000" d="M 568 288 L 327 288" stroke-miterlimit="10"/></g><g transform="translate(-222,-230) scale(1,1)"><path fill="#000000" stroke="none" d="M 337.16267485762415 283.790482243984 L 327 288 L 337.16267485762415 292.209517756016 L 349 288"/></g><g transform="translate(-222,-230) scale(1,1)"><path fill="none" stroke="#000000" d="M 337.16267485762415 283.790482243984 L 327 288 L 337.16267485762415 292.209517756016 L 349 288 L 337.16267485762415 283.790482243984" stroke-miterlimit="10"/></g><g transform="translate(-222,-230) scale(1,1)"><g><path fill="none" stroke="none"/><text fill="#000000" stroke="none" font-family="Arial" font-size="13px" font-style="normal" font-weight="normal" text-decoration="none" x="487.5" y="308.5">+questions</text></g></g><g transform="translate(-222,-230) scale(1,1)"><g><path fill="none" stroke="none"/><text fill="#000000" stroke="none" font-family="Arial" font-size="13px" font-style="normal" font-weight="normal" text-decoration="none" x="536.5" y="281.5">0..*</text></g></g><g transform="translate(-222,-230) scale(1,1)"><g><path fill="none" stroke="none"/><text fill="#000000" stroke="none" font-family="Arial" font-size="13px" font-style="normal" font-weight="normal" text-decoration="none" x="343.5" y="307.5">+event</text></g></g><g transform="translate(-222,-230) scale(1,1)"><g><path fill="none" stroke="none"/><text fill="#000000" stroke="none" font-family="Arial" font-size="13px" font-style="normal" font-weight="normal" text-decoration="none" x="344.5" y="281.5">1</text></g></g></g></svg>