<svg version="1.1" xmlns="http://www.w3.org/2000/svg" xmlns:xlink="http://www.w3.org/1999/xlink" width="468" height="524"><defs/><g><text fill="#eeeeee" stroke="none" font-family="Arial" font-size="24px" font-style="normal" font-weight="normal" text-decoration="none" x="0" y="0">UNREGISTERED</text><text fill="#eeeeee" stroke="none" font-family="Arial" font-size="24px" font-style="normal" font-weight="normal" text-decoration="none" x="0" y="30">UNREGISTERED</text><text fill="#eeeeee" stroke="none" font-family="Arial" font-size="24px" font-style="normal" font-weight="normal" text-decoration="none" x="0" y="60">UNREGISTERED</text><text fill="#eeeeee" stroke="none" font-family="Arial" font-size="24px" font-style="normal" font-weight="normal" text-decoration="none" x="0" y="90">UNREGISTERED</text><text fill="#eeeeee" stroke="none" font-family="Arial" font-size="24px" font-style="normal" font-weight="normal" text-decoration="none" x="0" y="120">UNREGISTERED</text><text fill="#eeeeee" stroke="none" font-family="Arial" font-size="24px" font-style="normal" font-weight="normal" text-decoration="none" x="0" y="150">UNREGISTERED</text><text fill="#eeeeee" stroke="none" font-family="Arial" font-size="24px" font-style="normal" font-weight="normal" text-decoration="none" x="0" y="180">UNREGISTERED</text><text fill="#eeeeee" stroke="none" font-family="Arial" font-size="24px" font-style="normal" font-weight="normal" text-decoration="none" x="0" y="210">UNREGISTERED</text><text fill="#eeeeee" stroke="none" font-family="Arial" font-size="24px" font-style="normal" font-weight="normal" text-decoration="none" x="0" y="240">UNREGISTERED</text><text fill="#eeeeee" stroke="none" font-family="Arial" font-size="24px" font-style="normal" font-weight="normal" text-decoration="none" x="0" y="270">UNREGISTERED</text><text fill="#eeeeee" stroke="none" font-family="Arial" font-size="24px" font-style="normal" font-weight="normal" text-decoration="none" x="0" y="300">UNREGISTERED</text><text fill="#eeeeee" stroke="none" font-family="Arial" font-size="24px" font-style="normal" font-weight="normal" text-decoration="none" x="0" y="330">UNREGISTERED</text><text fill="#eeeeee" stroke="none" font-family="Arial" font-size="24px" font-style="normal" font-weight="normal" text-decoration="none" x="0" y="360">UNREGISTERED</text><text fill="#eeeeee" stroke="none" font-family="Arial" font-size="24px" font-style="normal" font-weight="normal" text-decoration="none" x="0" y="390">UNREGISTERED</text><text fill="#eeeeee" stroke="none" font-family="Arial" font-size="24px" font-style="normal" font-weight="normal" text-decoration="none" x="0" y="420">UNREGISTERED</text><text fill="#eeeeee" stroke="none" font-family="Arial" font-size="24px" font-style="normal" font-weight="normal" text-decoration="none" x="0" y="450">UNREGISTERED</text><text fill="#eeeeee" stroke="none" font-family="Arial" font-size="24px" font-style="normal" font-weight="normal" text-decoration="none" x="0" y="480">UNREGISTERED</text><text fill="#eeeeee" stroke="none" font-family="Arial" font-size="24px" font-style="normal" font-weight="normal" text-decoration="none" x="0" y="510">UNREGISTERED</text><text fill="#eeeeee" stroke="none" font-family="Arial" font-size="24px" font-style="normal" font-weight="normal" text-decoration="none" x="200" y="0">UNREGISTERED</text><text fill="#eeeeee" stroke="none" font-family="Arial" font-size="24px" font-style="normal" font-weight="normal" text-decoration="none" x="200" y="30">UNREGISTERED</text><text fill="#eeeeee" stroke="none" font-family="Arial" font-size="24px" font-style="normal" font-weight="normal" text-decoration="none" x="200" y="60">UNREGISTERED</text><text fill="#eeeeee" stroke="none" font-family="Arial" font-size="24px" font-style="normal" font-weight="normal" text-decoration="none" x="200" y="90">UNREGISTERED</text><text fill="#eeeeee" stroke="none" font-family="Arial" font-size="24px" font-style="normal" font-weight="normal" text-decoration="none" x="200" y="120">UNREGISTERED</text><text fill="#eeeeee" stroke="none" font-family="Arial" font-size="24px" font-style="normal" font-weight="normal" text-decoration="none" x="200" y="150">UNREGISTERED</text><text fill="#eeeeee" stroke="none" font-family="Arial" font-size="24px" font-style="normal" font-weight="normal" text-decoration="none" x="200" y="180">UNREGISTERED</text><text fill="#eeeeee" stroke="none" font-family="Arial" font-size="24px" font-style="normal" font-weight="normal" text-decoration="none" x="200" y="210">UNREGISTERED</text><text fill="#eeeeee" stroke="none" font-family="Arial" font-size="24px" font-style="normal" font-weight="normal" text-decoration="none" x="200" y="240">UNREGISTERED</text><text fill="#eeeeee" stroke="none" font-family="Arial" font-size="24px" font-style="normal" font-weight="normal" text-decoration="none" x="200" y="270">UNREGISTERED</text><text fill="#eeeeee" stroke="none" font-family="Arial" font-size="24px" font-style="normal" font-weight="normal" text-decoration="none" x="200" y="300">UNREGISTERED</text><text fill="#eeeeee" stroke="none" font-family="Arial" font-size="24px" font-style="normal" font-weight="normal" text-decoration="none" x="200" y="330">UNREGISTERED</text><text fill="#eeeeee" stroke="none" font-family="Arial" font-size="24px" font-style="normal" font-weight="normal" text-decoration="none" x="200" y="360">UNREGISTERED</text><text fill="#eeeeee" stroke="none" font-family="Arial" font-size="24px" font-style="normal" font-weight="normal" text-decoration="none" x="200" y="390">UNREGISTERED</text><text fill="#eeeeee" stroke="none" font-family="Arial" font-size="24px" font-style="normal" font-weight="normal" text-decoration="none" x="200" y="420">UNREGISTERED</text><text fill="#eeeeee" stroke="none" font-family="Arial" font-size="24px" font-style="normal" font-weight="normal" text-decoration="none" x="200" y="450">UNREGISTERED</text><text fill="#eeeeee" stroke="none" font-family="Arial" font-size="24px" font-style="normal" font-weight="normal" text-decoration="none" x="200" y="480">UNREGISTERED</text><text fill="#eeeeee" stroke="none" font-family="Arial" font-size="24px" font-style="normal" font-weight="normal" text-decoration="none" x="200" y="510">UNREGISTERED</text><text fill="#eeeeee" stroke="none" font-family="Arial" font-size="24px" font-style="normal" font-weight="normal" text-decoration="none" x="400" y="0">UNREGISTERED</text><text fill="#eeeeee" stroke="none" font-family="Arial" font-size="24px" font-style="normal" font-weight="normal" text-decoration="none" x="400" y="30">UNREGISTERED</text><text fill="#eeeeee" stroke="none" font-family="Arial" font-size="24px" font-style="normal" font-weight="normal" text-decoration="none" x="400" y="60">UNREGISTERED</text><text fill="#eeeeee" stroke="none" font-family="Arial" font-size="24px" font-style="normal" font-weight="normal" text-decoration="none" x="400" y="90">UNREGISTERED</text><text fill="#eeeeee" stroke="none" font-family="Arial" font-size="24px" font-style="normal" font-weight="normal" text-decoration="none" x="400" y="120">UNREGISTERED</text><text fill="#eeeeee" stroke="none" font-family="Arial" font-size="24px" font-style="normal" font-weight="normal" text-decoration="none" x="400" y="150">UNREGISTERED</text><text fill="#eeeeee" stroke="none" font-family="Arial" font-size="24px" font-style="normal" font-weight="normal" text-decoration="none" x="400" y="180">UNREGISTERED</text><text fill="#eeeeee" stroke="none" font-family="Arial" font-size="24px" font-style="normal" font-weight="normal" text-decoration="none" x="400" y="210">UNREGISTERED</text><text fill="#eeeeee" stroke="none" font-family="Arial" font-size="24px" font-style="normal" font-weight="normal" text-decoration="none" x="400" y="240">UNREGISTERED</text><text fill="#eeeeee" stroke="none" font-family="Arial" font-size="24px" font-style="normal" font-weight="normal" text-decoration="none" x="400" y="270">UNREGISTERED</text><text fill="#eeeeee" stroke="none" font-family="Arial" font-size="24px" font-style="normal" font-weight="normal" text-decoration="none" x="400" y="300">UNREGISTERED</text><text fill="#eeeeee" stroke="none" font-family="Arial" font-size="24px" font-style="normal" font-weight="normal" text-decoration="none" x="400" y="330">UNREGISTERED</text><text fill="#eeeeee" stroke="none" font-family="Arial" font-size="24px" font-style="normal" font-weight="normal" text-decoration="none" x="400" y="360">UNREGISTERED</text><text fill="#eeeeee" stroke="none" font-family="Arial" font-size="24px" font-style="normal" font-weight="normal" text-decoration="none" x="400" y="390">UNREGISTERED</text><text fill="#eeeeee" stroke="none" font-family="Arial" font-size="24px" font-style="normal" font-weight="normal" text-decoration="none" x="400" y="420">UNREGISTERED</text><text fill="#eeeeee" stroke="none" font-family="Arial" font-size="24px" font-style="normal" font-weight="normal" text-decoration="none" x="400" y="450">UNREGISTERED</text><text fill="#eeeeee" stroke="none" font-family="Arial" font-size="24px" font-style="normal" font-weight="normal" text-decoration="none" x="400" y="480">UNREGISTERED</text><text fill="#eeeeee" stroke="none" font-family="Arial" font-size="24px" font-style="normal" font-weight="normal" text-decoration="none" x="400" y="510">UNREGISTERED</text><g transform="translate(-110,-46) scale(1,1)"><rect fill="#C0C0C0" stroke="none" x="271" y="63" width="304" height="504" opacity="0.2"/></g><g transform="translate(-110,-46) scale(1,1)"><rect fill="#ffffff" stroke="none" x="264" y="56" width="304" height="504"/></g><g transform="translate(-110,-46) scale(1,1)"><path fill="none" stroke="#000000" d="M 264 56 L 568 56 L 568 560 L 264 560 L 264 56 Z Z" stroke-miterlimit="10"/></g><g transform="translate(-110,-46) scale(1,1)"><g><path fill="none" stroke="none"/><text fill="#000000" stroke="none" font-family="Arial" font-size="13px" font-style="normal" font-weight="bold" text-decoration="none" x="394.3291015625" y="75.5">System</text></g></g><g transform="translate(-110,-46) scale(1,1)"><path fill="#ffffff" stroke="none" d="M 160.40935031960228 145.68 C 160.40935031960228 140.886167936 164.29519264454774 137 169.088623046875 137 C 173.88205344920226 137 177.76789577414772 140.886167936 177.76789577414772 145.68 C 177.76789577414772 150.47383206400002 173.88205344920226 154.36 169.088623046875 154.36 C 164.29519264454774 154.36 160.40935031960228 150.47383206400002 160.40935031960228 145.68 Z"/></g><g transform="translate(-110,-46) scale(1,1)"><path fill="none" stroke="#000000" d="M 160.40935031960228 145.68 C 160.40935031960228 140.886167936 164.29519264454774 137 169.088623046875 137 C 173.88205344920226 137 177.76789577414772 140.886167936 177.76789577414772 145.68 C 177.76789577414772 150.47383206400002 173.88205344920226 154.36 169.088623046875 154.36 C 164.29519264454774 154.36 160.40935031960228 150.47383206400002 160.40935031960228 145.68 Z" stroke-miterlimit="10"/></g><g transform="translate(-110,-46) scale(1,1)"><path fill="none" stroke="#000000" d="M 169.088623046875 154.36 L 169.088623046875 171.64" stroke-miterlimit="10"/></g><g transform="translate(-110,-46) scale(1,1)"><path fill="none" stroke="#000000" d="M 159.89880486505683 160.84 L 178.27844122869317 160.84" stroke-miterlimit="10"/></g><g transform="translate(-110,-46) scale(1,1)"><path fill="none" stroke="#000000" d="M 169.088623046875 171.64 L 156.32498668323865 189" stroke-miterlimit="10"/></g><g transform="translate(-110,-46) scale(1,1)"><path fill="none" stroke="#000000" d="M 169.088623046875 171.64 L 181.85225941051135 189" stroke-miterlimit="10"/></g><g transform="translate(-110,-46) scale(1,1)"><g><path fill="none" stroke="none"/><text fill="#000000" stroke="none" font-family="Arial" font-size="13px" font-style="normal" font-weight="bold" text-decoration="none" x="150.66455078125" y="209.5">Admin</text></g></g><g transform="translate(-110,-46) scale(1,1)"><path fill="#ffffff" stroke="none" d="M 163.48845188210228 305.68 C 163.48845188210228 300.886167936 167.37429420704774 297 172.167724609375 297 C 176.96115501170226 297 180.84699733664772 300.886167936 180.84699733664772 305.68 C 180.84699733664772 310.473832064 176.96115501170226 314.36 172.167724609375 314.36 C 167.37429420704774 314.36 163.48845188210228 310.473832064 163.48845188210228 305.68 Z"/></g><g transform="translate(-110,-46) scale(1,1)"><path fill="none" stroke="#000000" d="M 163.48845188210228 305.68 C 163.48845188210228 300.886167936 167.37429420704774 297 172.167724609375 297 C 176.96115501170226 297 180.84699733664772 300.886167936 180.84699733664772 305.68 C 180.84699733664772 310.473832064 176.96115501170226 314.36 172.167724609375 314.36 C 167.37429420704774 314.36 163.48845188210228 310.473832064 163.48845188210228 305.68 Z" stroke-miterlimit="10"/></g><g transform="translate(-110,-46) scale(1,1)"><path fill="none" stroke="#000000" d="M 172.167724609375 314.36 L 172.167724609375 331.64" stroke-miterlimit="10"/></g><g transform="translate(-110,-46) scale(1,1)"><path fill="none" stroke="#000000" d="M 162.97790642755683 320.84 L 181.35754279119317 320.84" stroke-miterlimit="10"/></g><g transform="translate(-110,-46) scale(1,1)"><path fill="none" stroke="#000000" d="M 172.167724609375 331.64 L 159.40408824573865 349" stroke-miterlimit="10"/></g><g transform="translate(-110,-46) scale(1,1)"><path fill="none" stroke="#000000" d="M 172.167724609375 331.64 L 184.93136097301135 349" stroke-miterlimit="10"/></g><g transform="translate(-110,-46) scale(1,1)"><g><path fill="none" stroke="none"/><text fill="#000000" stroke="none" font-family="Arial" font-size="13px" font-style="normal" font-weight="bold" text-decoration="none" x="127.724609375" y="369.5">Logged-in User</text></g></g><g transform="translate(-110,-46) scale(1,1)"><path fill="none" stroke="#000000" d="M 170 216 L 171 295" stroke-miterlimit="10"/></g><g transform="translate(-110,-46) scale(1,1)"><path fill="#FFFFFF" stroke="none" d="M 162.324376603085 274.7828399948237 L 171 295 L 179.16109880101436 274.5697169290271"/></g><g transform="translate(-110,-46) scale(1,1)"><path fill="none" stroke="#000000" d="M 162.324376603085 274.7828399948237 L 171 295 L 179.16109880101436 274.5697169290271 L 162.324376603085 274.7828399948237" stroke-miterlimit="10"/></g><g transform="translate(-110,-46) scale(1,1)"><path fill="#C0C0C0" stroke="none" d="M 335 184 C 335 174.6111584 369.697928 167 412.5 167 C 455.302072 167 490 174.6111584 490 184 C 490 193.3888416 455.302072 201 412.5 201 C 369.697928 201 335 193.3888416 335 184 Z" opacity="0.2"/></g><g transform="translate(-110,-46) scale(1,1)"><path fill="#ffffff" stroke="none" d="M 328 177 C 328 167.6111584 362.697928 160 405.5 160 C 448.302072 160 483 167.6111584 483 177 C 483 186.3888416 448.302072 194 405.5 194 C 362.697928 194 328 186.3888416 328 177 Z"/></g><g transform="translate(-110,-46) scale(1,1)"><path fill="none" stroke="#000000" d="M 328 177 C 328 167.6111584 362.697928 160 405.5 160 C 448.302072 160 483 167.6111584 483 177 C 483 186.3888416 448.302072 194 405.5 194 C 362.697928 194 328 186.3888416 328 177 Z" stroke-miterlimit="10"/></g><g transform="translate(-110,-46) scale(1,1)"><g><path fill="none" stroke="none"/><text fill="#000000" stroke="none" font-family="Arial" font-size="13px" font-style="normal" font-weight="bold" text-decoration="none" x="358.168701171875" y="184">Create Question</text></g></g><g transform="translate(-110,-46) scale(1,1)"><path fill="#C0C0C0" stroke="none" d="M 327 336 C 327 326.6111584 362.36950079999997 319 406 319 C 449.63049920000003 319 485 326.6111584 485 336 C 485 345.3888416 449.63049920000003 353 406 353 C 362.36950079999997 353 327 345.3888416 327 336 Z" opacity="0.2"/></g><g transform="translate(-110,-46) scale(1,1)"><path fill="#ffffff" stroke="none" d="M 320 329 C 320 319.6111584 355.36950079999997 312 399 312 C 442.63049920000003 312 478 319.6111584 478 329 C 478 338.3888416 442.63049920000003 346 399 346 C 355.36950079999997 346 320 338.3888416 320 329 Z"/></g><g transform="translate(-110,-46) scale(1,1)"><path fill="none" stroke="#000000" d="M 320 329 C 320 319.6111584 355.36950079999997 312 399 312 C 442.63049920000003 312 478 319.6111584 478 329 C 478 338.3888416 442.63049920000003 346 399 346 C 355.36950079999997 346 320 338.3888416 320 329 Z" stroke-miterlimit="10"/></g><g transform="translate(-110,-46) scale(1,1)"><g><path fill="none" stroke="none"/><text fill="#000000" stroke="none" font-family="Arial" font-size="13px" font-style="normal" font-weight="bold" text-decoration="none" x="351.668701171875" y="336">Query questions</text></g></g><g transform="translate(-110,-46) scale(1,1)"><path fill="none" stroke="#000000" d="M 194 176 L 328 176" stroke-miterlimit="10"/></g><g transform="translate(-110,-46) scale(1,1)"><path fill="none" stroke="#000000" d="M 224 328 L 320 328" stroke-miterlimit="10"/></g><g transform="translate(-110,-46) scale(1,1)"><path fill="#ffffff" stroke="none" d="M 161.37663547585228 457.68 C 161.37663547585228 452.886167936 165.26247780079774 449 170.055908203125 449 C 174.84933860545226 449 178.73518093039772 452.886167936 178.73518093039772 457.68 C 178.73518093039772 462.473832064 174.84933860545226 466.36 170.055908203125 466.36 C 165.26247780079774 466.36 161.37663547585228 462.473832064 161.37663547585228 457.68 Z"/></g><g transform="translate(-110,-46) scale(1,1)"><path fill="none" stroke="#000000" d="M 161.37663547585228 457.68 C 161.37663547585228 452.886167936 165.26247780079774 449 170.055908203125 449 C 174.84933860545226 449 178.73518093039772 452.886167936 178.73518093039772 457.68 C 178.73518093039772 462.473832064 174.84933860545226 466.36 170.055908203125 466.36 C 165.26247780079774 466.36 161.37663547585228 462.473832064 161.37663547585228 457.68 Z" stroke-miterlimit="10"/></g><g transform="translate(-110,-46) scale(1,1)"><path fill="none" stroke="#000000" d="M 170.055908203125 466.36 L 170.055908203125 483.64" stroke-miterlimit="10"/></g><g transform="translate(-110,-46) scale(1,1)"><path fill="none" stroke="#000000" d="M 160.86609002130683 472.84 L 179.24572638494317 472.84" stroke-miterlimit="10"/></g><g transform="translate(-110,-46) scale(1,1)"><path fill="none" stroke="#000000" d="M 170.055908203125 483.64 L 157.29227183948865 501" stroke-miterlimit="10"/></g><g transform="translate(-110,-46) scale(1,1)"><path fill="none" stroke="#000000" d="M 170.055908203125 483.64 L 182.81954456676135 501" stroke-miterlimit="10"/></g><g transform="translate(-110,-46) scale(1,1)"><g><path fill="none" stroke="none"/><text fill="#000000" stroke="none" font-family="Arial" font-size="13px" font-style="normal" font-weight="bold" text-decoration="none" x="135.73095703125" y="521.5">Anonymous</text></g></g><g transform="translate(-110,-46) scale(1,1)"><path fill="#C0C0C0" stroke="none" d="M 343 464 C 343 454.6111584 365.6096176 447 393.5 447 C 421.3903824 447 444 454.6111584 444 464 C 444 473.3888416 421.3903824 481 393.5 481 C 365.6096176 481 343 473.3888416 343 464 Z" opacity="0.2"/></g><g transform="translate(-110,-46) scale(1,1)"><path fill="#ffffff" stroke="none" d="M 336 457 C 336 447.6111584 358.6096176 440 386.5 440 C 414.3903824 440 437 447.6111584 437 457 C 437 466.3888416 414.3903824 474 386.5 474 C 358.6096176 474 336 466.3888416 336 457 Z"/></g><g transform="translate(-110,-46) scale(1,1)"><path fill="none" stroke="#000000" d="M 336 457 C 336 447.6111584 358.6096176 440 386.5 440 C 414.3903824 440 437 447.6111584 437 457 C 437 466.3888416 414.3903824 474 386.5 474 C 358.6096176 474 336 466.3888416 336 457 Z" stroke-miterlimit="10"/></g><g transform="translate(-110,-46) scale(1,1)"><g><path fill="none" stroke="none"/><text fill="#000000" stroke="none" font-family="Arial" font-size="13px" font-style="normal" font-weight="bold" text-decoration="none" x="368.431396484375" y="464">Log-in</text></g></g><g transform="translate(-110,-46) scale(1,1)"><path fill="#C0C0C0" stroke="none" d="M 343 504 C 343 494.6111584 365.6096176 487 393.5 487 C 421.3903824 487 444 494.6111584 444 504 C 444 513.3888416 421.3903824 521 393.5 521 C 365.6096176 521 343 513.3888416 343 504 Z" opacity="0.2"/></g><g transform="translate(-110,-46) scale(1,1)"><path fill="#ffffff" stroke="none" d="M 336 497 C 336 487.6111584 358.6096176 480 386.5 480 C 414.3903824 480 437 487.6111584 437 497 C 437 506.3888416 414.3903824 514 386.5 514 C 358.6096176 514 336 506.3888416 336 497 Z"/></g><g transform="translate(-110,-46) scale(1,1)"><path fill="none" stroke="#000000" d="M 336 497 C 336 487.6111584 358.6096176 480 386.5 480 C 414.3903824 480 437 487.6111584 437 497 C 437 506.3888416 414.3903824 514 386.5 514 C 358.6096176 514 336 506.3888416 336 497 Z" stroke-miterlimit="10"/></g><g transform="translate(-110,-46) scale(1,1)"><g><path fill="none" stroke="none"/><text fill="#000000" stroke="none" font-family="Arial" font-size="13px" font-style="normal" font-weight="bold" text-decoration="none" x="364.45458984375" y="504">Sign up</text></g></g><g transform="translate(-110,-46) scale(1,1)"><path fill="none" stroke="#000000" d="M 171 376 L 171 447" stroke-miterlimit="10"/></g><g transform="translate(-110,-46) scale(1,1)"><path fill="#FFFFFF" stroke="none" d="M 162.58096448796803 426.6746502847517 L 171 447 L 179.41903551203197 426.6746502847517"/></g><g transform="translate(-110,-46) scale(1,1)"><path fill="none" stroke="#000000" d="M 162.58096448796803 426.6746502847517 L 171 447 L 179.41903551203197 426.6746502847517 L 162.58096448796803 426.6746502847517" stroke-miterlimit="10"/></g><g transform="translate(-110,-46) scale(1,1)"><path fill="#C0C0C0" stroke="none" d="M 311 136 C 311 126.6111584 357.5623808 119 415 119 C 472.4376192 119 519 126.6111584 519 136 C 519 145.3888416 472.4376192 153 415 153 C 357.5623808 153 311 145.3888416 311 136 Z" opacity="0.2"/></g><g transform="translate(-110,-46) scale(1,1)"><path fill="#ffffff" stroke="none" d="M 304 129 C 304 119.6111584 350.5623808 112 408 112 C 465.4376192 112 512 119.6111584 512 129 C 512 138.3888416 465.4376192 146 408 146 C 350.5623808 146 304 138.3888416 304 129 Z"/></g><g transform="translate(-110,-46) scale(1,1)"><path fill="none" stroke="#000000" d="M 304 129 C 304 119.6111584 350.5623808 112 408 112 C 465.4376192 112 512 119.6111584 512 129 C 512 138.3888416 465.4376192 146 408 146 C 350.5623808 146 304 138.3888416 304 129 Z" stroke-miterlimit="10"/></g><g transform="translate(-110,-46) scale(1,1)"><g><path fill="none" stroke="none"/><text fill="#000000" stroke="none" font-family="Arial" font-size="13px" font-style="normal" font-weight="bold" text-decoration="none" x="351.6328125" y="136">Create a new event</text></g></g><g transform="translate(-110,-46) scale(1,1)"><path fill="#C0C0C0" stroke="none" d="M 311 232 C 311 222.6111584 359.129384 215 418.5 215 C 477.870616 215 526 222.6111584 526 232 C 526 241.3888416 477.870616 249 418.5 249 C 359.129384 249 311 241.3888416 311 232 Z" opacity="0.2"/></g><g transform="translate(-110,-46) scale(1,1)"><path fill="#ffffff" stroke="none" d="M 304 225 C 304 215.6111584 352.129384 208 411.5 208 C 470.870616 208 519 215.6111584 519 225 C 519 234.3888416 470.870616 242 411.5 242 C 352.129384 242 304 234.3888416 304 225 Z"/></g><g transform="translate(-110,-46) scale(1,1)"><path fill="none" stroke="#000000" d="M 304 225 C 304 215.6111584 352.129384 208 411.5 208 C 470.870616 208 519 215.6111584 519 225 C 519 234.3888416 470.870616 242 411.5 242 C 352.129384 242 304 234.3888416 304 225 Z" stroke-miterlimit="10"/></g><g transform="translate(-110,-46) scale(1,1)"><g><path fill="none" stroke="none"/><text fill="#000000" stroke="none" font-family="Arial" font-size="13px" font-style="normal" font-weight="bold" text-decoration="none" x="344.287841796875" y="232">Set a fee for a question</text></g></g><g transform="translate(-110,-46) scale(1,1)"><path fill="none" stroke="#000000" d="M 336 456 L 242 456 L 242 472 L 212 472" stroke-miterlimit="10"/></g><g transform="translate(-110,-46) scale(1,1)"><path fill="none" stroke="#000000" d="M 336 496 L 242 496 L 242 480 L 212 480" stroke-miterlimit="10"/></g><g transform="translate(-110,-46) scale(1,1)"><path fill="none" stroke="#000000" d="M 304 128 L 224 128 L 224 168 L 194 168" stroke-miterlimit="10"/></g><g transform="translate(-110,-46) scale(1,1)"><path fill="none" stroke="#000000" d="M 304 224 L 224 224 L 224 184 L 194 184" stroke-miterlimit="10"/></g></g></svg>